<svg width="60" height="60" viewBox="0 0 60 60" fill="none" xmlns="http://www.w3.org/2000/svg">
<path d="M58.3479 56.4813H57.2173C57.0306 54.8769 56.3542 53.3435 55.2096 51.8998C55.2982 51.8309 55.3897 51.7663 55.4703 51.6857C55.9864 51.176 56.2708 50.4918 56.2708 49.759C56.2708 48.5109 55.424 47.4669 54.279 47.1447C54.5662 46.0766 54.8365 44.9677 55.0696 43.8018C55.6047 41.1453 55.9968 38.2738 56.2678 35.024C56.754 29.3417 54.3607 25.9527 51.6199 23.945V5.7861C51.6199 3.56256 49.8111 1.75391 47.5963 1.75391H4.79339C2.57867 1.75391 0.77002 3.56256 0.77002 5.7861V48.5802C0.77002 50.8038 2.57867 52.6038 4.79339 52.6038H36.6076C35.7757 53.839 35.2748 55.1354 35.118 56.4813H33.9875C33.5002 56.4813 33.1052 56.876 33.1052 57.3637C33.1052 57.8505 33.5002 58.246 33.9875 58.246H58.3479C58.8351 58.246 59.2302 57.8505 59.2302 57.3637C59.2302 56.876 58.8351 56.4813 58.3479 56.4813ZM54.5091 34.8753V34.8775C54.2437 38.0588 53.8611 40.8639 53.3394 43.4546C53.0951 44.6747 52.8189 45.8474 52.5156 46.9512L40.2682 47.0266C40.4243 44.4461 42.7361 41.2693 44.6154 39.3892C47.3004 36.6999 47.0793 33.9503 46.6791 32.1167C46.5912 31.7138 46.2362 31.4256 45.8243 31.4222C45.8217 31.4222 45.8196 31.4222 45.817 31.4222C45.4081 31.4222 45.0522 31.7035 44.9583 32.102C44.7351 33.0494 44.3763 33.6651 43.8924 33.9322C43.4319 34.1864 42.7714 34.1683 41.9278 33.8784C41.3695 33.6871 40.7473 33.809 40.3087 34.1933L38.6905 35.5888C38.4553 35.7913 38.2855 36.0674 38.2028 36.3742C38.1662 36.5026 38.1201 36.5896 38.0757 36.6491L36.4179 34.6315C36.3649 34.5668 36.3705 34.4712 36.4295 34.4143L41.0476 29.9819C41.4629 29.5816 41.6473 28.9991 41.5293 28.3568C41.4061 27.5894 41.8778 26.7881 42.649 26.452L44.3901 25.6989C44.9364 25.462 45.2892 24.9243 45.2892 24.3289V23.0355C48.2835 23.6792 55.2588 26.1298 54.5091 34.8753ZM39.4611 38.6891V37.7365C39.6483 37.4952 39.7945 37.21 39.8926 36.8822L41.4164 35.5685C42.724 36.0054 43.8446 35.9744 44.7451 35.4772C44.8437 35.4229 44.9389 35.3635 45.0311 35.298C44.8071 36.3311 44.2617 37.2462 43.3672 38.1423C43.1807 38.3285 43.0107 38.5086 42.8403 38.6891H39.4611ZM37.6964 23.9364V30.4304H31.2021V23.9364H37.6964ZM31.2021 13.913V7.41854H37.6964V13.913H31.2021ZM39.4611 22.1717V15.6777H45.9553V21.3828C45.5473 21.2846 45.2101 21.2187 44.9794 21.1795C44.6158 21.1187 44.2444 21.2217 43.9644 21.4604C43.7472 21.6448 43.6049 21.8964 43.5508 22.1717H39.4611ZM4.79339 50.8391C3.54935 50.8391 2.53473 49.8245 2.53473 48.5802V5.7861C2.53473 4.53323 3.54935 3.51861 4.79339 3.51861H47.5963C48.8406 3.51861 49.8552 4.53323 49.8552 5.7861V22.8455C49.114 22.4552 48.3861 22.1471 47.72 21.9093V8.39827C47.72 6.88905 46.4846 5.65384 44.9758 5.65384H7.41395C5.89633 5.65384 4.66995 6.88905 4.66995 8.39827V45.9685C4.66995 47.4773 5.89633 48.7039 7.41395 48.7039H36.2763C36.1382 49.0335 36.0646 49.3902 36.0646 49.759C36.0646 50.1429 36.1464 50.5074 36.2903 50.8391H4.79339ZM22.9523 22.1717V15.6777H29.4374V22.1717H22.9523ZM29.4374 32.1951V38.6891H22.9523V32.1951H29.4374ZM14.6934 30.4304V23.9364H21.1876V30.4304H14.6934ZM21.1876 40.4538V46.9392H14.6934V40.4538H21.1876ZM14.6934 13.913V7.41854H21.1876V13.913H14.6934ZM6.43466 22.1717V15.6777H12.9287V22.1717H6.43466ZM12.9287 32.1951V38.6891H6.43466V32.1951H12.9287ZM31.2021 46.9392V40.4538H37.6964V46.9392H31.2021ZM36.8948 56.4813C37.1003 55.0871 37.7733 53.7692 38.9344 52.4823H53.401C54.5621 53.7692 55.2351 55.0871 55.4406 56.4813H36.8948Z" fill="#1C77C3"/>
<path d="M44.3401 29.9357C45.1632 29.9357 45.8304 29.2684 45.8304 28.4454C45.8304 27.6223 45.1632 26.9551 44.3401 26.9551C43.5171 26.9551 42.8499 27.6223 42.8499 28.4454C42.8499 29.2684 43.5171 29.9357 44.3401 29.9357Z" fill="#1C77C3"/>
</svg>
