<svg width="28" height="28" viewBox="0 0 28 28" fill="none" xmlns="http://www.w3.org/2000/svg">
<path d="M23.3712 23.3274H4.62866C3.64274 23.3262 2.69754 22.934 2.00039 22.2369C1.30324 21.5397 0.91107 20.5945 0.909912 19.6086V8.39111C0.91107 7.40519 1.30324 6.45999 2.00039 5.76284C2.69754 5.06569 3.64274 4.67352 4.62866 4.67236H23.3712C24.3571 4.67352 25.3023 5.06569 25.9994 5.76284C26.6966 6.45999 27.0888 7.40519 27.0899 8.39111V19.6086C27.0888 20.5945 26.6966 21.5397 25.9994 22.2369C25.3023 22.934 24.3571 23.3262 23.3712 23.3274ZM4.62866 5.98486C3.99048 5.98486 3.37845 6.23838 2.92719 6.68964C2.47593 7.1409 2.22241 7.75294 2.22241 8.39111V19.6086C2.22241 20.2468 2.47593 20.8588 2.92719 21.3101C3.37845 21.7613 3.99048 22.0149 4.62866 22.0149H23.3712C24.0093 22.0149 24.6214 21.7613 25.0726 21.3101C25.5239 20.8588 25.7774 20.2468 25.7774 19.6086V8.39111C25.7774 7.75294 25.5239 7.1409 25.0726 6.68964C24.6214 6.23838 24.0093 5.98486 23.3712 5.98486H4.62866Z" fill="#1C77C3"/>
<path d="M14 16.66C13.1904 16.6612 12.4025 16.3986 11.7556 15.9118L1.54 8.1856C1.46782 8.13494 1.40659 8.07026 1.35997 7.99541C1.31335 7.92056 1.28229 7.83709 1.26864 7.74997C1.255 7.66285 1.25906 7.57387 1.28057 7.48836C1.30208 7.40284 1.3406 7.32254 1.39384 7.25224C1.44707 7.18194 1.51393 7.1231 1.59042 7.07922C1.6669 7.03533 1.75145 7.00732 1.83901 6.99684C1.92656 6.98636 2.01533 6.99363 2.10001 7.01822C2.18469 7.04282 2.26355 7.08422 2.33187 7.13997L12.5475 14.875C12.967 15.1881 13.4765 15.3573 14 15.3573C14.5235 15.3573 15.033 15.1881 15.4525 14.875L25.6681 7.13997C25.7364 7.08422 25.8153 7.04282 25.9 7.01822C25.9847 6.99363 26.0734 6.98636 26.161 6.99684C26.2485 7.00732 26.3331 7.03533 26.4096 7.07922C26.4861 7.1231 26.5529 7.18194 26.6062 7.25224C26.6594 7.32254 26.6979 7.40284 26.7194 7.48836C26.7409 7.57387 26.745 7.66285 26.7314 7.74997C26.7177 7.83709 26.6866 7.92056 26.64 7.99541C26.5934 8.07026 26.5322 8.13494 26.46 8.1856L16.2444 15.9118C15.5975 16.3986 14.8096 16.6612 14 16.66Z" fill="#1C77C3"/>
<path d="M1.82445 21.4989C1.69135 21.4991 1.56134 21.4588 1.45166 21.3834C1.34199 21.308 1.25784 21.201 1.21038 21.0766C1.16292 20.9523 1.15439 20.8164 1.18592 20.6871C1.21746 20.5578 1.28757 20.4412 1.38695 20.3526L9.43695 13.1732C9.56691 13.0572 9.73763 12.9976 9.91157 13.0074C10.0855 13.0172 10.2484 13.0958 10.3645 13.2257C10.4805 13.3557 10.5401 13.5264 10.5303 13.7004C10.5204 13.8743 10.4419 14.0372 10.312 14.1532L2.26195 21.3326C2.1424 21.4414 1.98607 21.5008 1.82445 21.4989ZM26.1757 21.4989C26.0141 21.5008 25.8577 21.4414 25.7382 21.3326L17.6882 14.1532C17.5582 14.0372 17.4797 13.8743 17.4699 13.7004C17.46 13.5264 17.5197 13.3557 17.6357 13.2257C17.7517 13.0958 17.9146 13.0172 18.0886 13.0074C18.2625 12.9976 18.4332 13.0572 18.5632 13.1732L26.6088 20.3526C26.7082 20.4412 26.7783 20.5578 26.8099 20.6871C26.8414 20.8164 26.8329 20.9523 26.7854 21.0766C26.7379 21.201 26.6538 21.308 26.5441 21.3834C26.4344 21.4588 26.3044 21.4991 26.1713 21.4989H26.1757Z" fill="#1C77C3"/>
</svg>
