<svg width="28" height="28" viewBox="0 0 28 28" fill="none" xmlns="http://www.w3.org/2000/svg">
<path d="M23.3714 23.3279H4.62891C3.64299 23.3267 2.69778 22.9345 2.00063 22.2374C1.30348 21.5402 0.911314 20.595 0.910156 19.6091V8.3916C0.911314 7.40568 1.30348 6.46048 2.00063 5.76333C2.69778 5.06618 3.64299 4.67401 4.62891 4.67285H23.3714C24.3573 4.67401 25.3025 5.06618 25.9997 5.76333C26.6968 6.46048 27.089 7.40568 27.0902 8.3916V19.6091C27.089 20.595 26.6968 21.5402 25.9997 22.2374C25.3025 22.9345 24.3573 23.3267 23.3714 23.3279ZM4.62891 5.98535C3.99073 5.98535 3.37869 6.23887 2.92743 6.69013C2.47617 7.14138 2.22266 7.75342 2.22266 8.3916V19.6091C2.22266 20.2473 2.47617 20.8593 2.92743 21.3106C3.37869 21.7618 3.99073 22.0154 4.62891 22.0154H23.3714C24.0096 22.0154 24.6216 21.7618 25.0729 21.3106C25.5241 20.8593 25.7777 20.2473 25.7777 19.6091V8.3916C25.7777 7.75342 25.5241 7.14138 25.0729 6.69013C24.6216 6.23887 24.0096 5.98535 23.3714 5.98535H4.62891Z" fill="#F0F0F0"/>
<path d="M14 16.66C13.1904 16.6612 12.4025 16.3986 11.7556 15.9118L1.54 8.1856C1.46782 8.13494 1.40659 8.07026 1.35997 7.99541C1.31335 7.92056 1.28229 7.83709 1.26864 7.74997C1.255 7.66285 1.25906 7.57387 1.28057 7.48836C1.30208 7.40284 1.3406 7.32254 1.39384 7.25224C1.44707 7.18194 1.51393 7.1231 1.59042 7.07922C1.6669 7.03533 1.75145 7.00732 1.83901 6.99684C1.92656 6.98636 2.01533 6.99363 2.10001 7.01822C2.18469 7.04282 2.26355 7.08422 2.33187 7.13997L12.5475 14.875C12.967 15.1881 13.4765 15.3573 14 15.3573C14.5235 15.3573 15.033 15.1881 15.4525 14.875L25.6681 7.13997C25.7364 7.08422 25.8153 7.04282 25.9 7.01822C25.9847 6.99363 26.0734 6.98636 26.161 6.99684C26.2485 7.00732 26.3331 7.03533 26.4096 7.07922C26.4861 7.1231 26.5529 7.18194 26.6062 7.25224C26.6594 7.32254 26.6979 7.40284 26.7194 7.48836C26.7409 7.57387 26.745 7.66285 26.7314 7.74997C26.7177 7.83709 26.6866 7.92056 26.64 7.99541C26.5934 8.07026 26.5322 8.13494 26.46 8.1856L16.2444 15.9118C15.5975 16.3986 14.8096 16.6612 14 16.66Z" fill="#F0F0F0"/>
<path d="M1.82421 21.4984C1.69111 21.4986 1.56109 21.4583 1.45142 21.3829C1.34175 21.3075 1.25759 21.2005 1.21013 21.0761C1.16267 20.9518 1.15414 20.8159 1.18568 20.6866C1.21722 20.5573 1.28733 20.4407 1.38671 20.3521L9.43671 13.1728C9.56666 13.0567 9.73739 12.9971 9.91133 13.0069C10.0853 13.0168 10.2482 13.0953 10.3642 13.2253C10.4802 13.3552 10.5399 13.5259 10.53 13.6999C10.5202 13.8738 10.4417 14.0367 10.3117 14.1528L2.26171 21.3321C2.14216 21.4409 1.98582 21.5003 1.82421 21.4984ZM26.1755 21.4984C26.0138 21.5003 25.8575 21.4409 25.738 21.3321L17.688 14.1528C17.558 14.0367 17.4795 13.8738 17.4696 13.6999C17.4598 13.5259 17.5194 13.3552 17.6355 13.2253C17.7515 13.0953 17.9144 13.0168 18.0883 13.0069C18.2623 12.9971 18.433 13.0567 18.563 13.1728L26.6086 20.3521C26.708 20.4407 26.7781 20.5573 26.8096 20.6866C26.8411 20.8159 26.8326 20.9518 26.7852 21.0761C26.7377 21.2005 26.6535 21.3075 26.5439 21.3829C26.4342 21.4583 26.3042 21.4986 26.1711 21.4984H26.1755Z" fill="#F0F0F0"/>
</svg>
