<svg width="32" height="32" viewBox="0 0 32 32" fill="none" xmlns="http://www.w3.org/2000/svg">
<path d="M4.45165 4.00073C4.32836 4.01284 4.21395 4.07033 4.13059 4.16199C4.04724 4.25364 4.00088 4.37294 4.00049 4.49683V6.49695V10.4968V12.4988V16.4989V18.4988V22.5009V24.5007V27.4988C4.00022 27.5648 4.01302 27.6301 4.03814 27.6912C4.06327 27.7522 4.10023 27.8077 4.14689 27.8544C4.19355 27.901 4.24898 27.938 4.31 27.9631C4.37102 27.9883 4.43642 28.0011 4.50241 28.0009H27.5044C27.5379 28.0005 27.5714 27.9969 27.6042 27.9899C27.637 27.9831 27.669 27.973 27.6998 27.9598C27.7145 27.9529 27.7289 27.9453 27.7429 27.9369C27.772 27.9207 27.7995 27.9016 27.8249 27.8799C27.85 27.8582 27.8729 27.8341 27.8933 27.8079C27.894 27.8079 27.8946 27.8079 27.8953 27.8079C27.9047 27.7953 27.9136 27.7823 27.9218 27.7689C27.9571 27.7129 27.981 27.6505 27.9921 27.5852C27.9967 27.5588 27.9993 27.532 27.9997 27.5051V25.5033V21.5344C28 21.5244 28 21.5145 27.9997 21.5045V19.5044V15.5337C27.9998 15.526 27.9998 15.5183 27.9997 15.5106V13.5106V9.53992C28 9.52992 28 9.52001 27.9997 9.51001V7.51001V4.5061C27.9986 4.37519 27.9463 4.24986 27.8539 4.1571C27.7615 4.06435 27.6364 4.01155 27.5055 4.01001H4.50359C4.48672 4.00915 4.46981 4.00915 4.45294 4.01001L4.45165 4.00073ZM7.00438 4.9989H10.0024V6.49695C10.0022 6.56293 10.015 6.62832 10.0401 6.68933C10.0653 6.75034 10.1022 6.80576 10.1489 6.85242C10.1956 6.89907 10.251 6.93605 10.312 6.96118C10.373 6.98631 10.4384 6.99915 10.5044 6.9989H12.5044C12.6363 6.99734 12.7623 6.94362 12.8548 6.84961C12.9474 6.7556 12.999 6.62887 12.9985 6.49695V4.9989H16.0044V6.49695C16.0039 6.62887 16.0555 6.7556 16.1481 6.84961C16.2407 6.94362 16.3666 6.99734 16.4985 6.9989H18.4985C18.5645 6.99916 18.6299 6.98631 18.6909 6.96118C18.7519 6.93605 18.8073 6.89907 18.854 6.85242C18.9007 6.80576 18.9376 6.75034 18.9628 6.68933C18.9879 6.62832 19.0007 6.56294 19.0005 6.49695V4.9989H22.0044V6.49695C22.0039 6.62921 22.0558 6.75628 22.1488 6.85034C22.2418 6.94441 22.3682 6.99786 22.5005 6.9989H24.5004C24.5664 6.99916 24.6318 6.98631 24.6928 6.96118C24.7538 6.93605 24.8093 6.89907 24.8559 6.85242C24.9026 6.80576 24.9396 6.75034 24.9647 6.68933C24.9898 6.62832 25.0027 6.56294 25.0024 6.49695V4.9989H27.0024V6.9989H25.5044C25.4869 6.99798 25.4693 6.99798 25.4518 6.9989C25.3279 7.01155 25.2131 7.06998 25.13 7.16284C25.0469 7.2557 25.0014 7.37624 25.0026 7.50085V9.50073C25.0023 9.56672 25.0151 9.6321 25.0403 9.69312C25.0654 9.75413 25.1024 9.80966 25.149 9.85632C25.1957 9.90299 25.2511 9.93995 25.3121 9.96509C25.3731 9.99023 25.4385 10.0031 25.5045 10.0028H27.0026V13.0007H25.5045C25.487 12.9998 25.4695 12.9998 25.452 13.0007C25.328 13.0134 25.2133 13.0719 25.1302 13.1648C25.0471 13.2577 25.0017 13.3782 25.0028 13.5028V15.5028C25.0044 15.6347 25.058 15.7606 25.152 15.8531C25.246 15.9457 25.3728 15.9973 25.5048 15.9968H27.0028V19.0009H25.5048C25.4873 18.9999 25.4697 18.9999 25.4522 19.0009C25.3293 19.0134 25.2154 19.071 25.1324 19.1626C25.0495 19.2542 25.0034 19.3733 25.003 19.4968V21.4969C25.0028 21.5629 25.0156 21.6283 25.0407 21.6893C25.0659 21.7503 25.1028 21.8058 25.1495 21.8524C25.1961 21.8991 25.2516 21.936 25.3126 21.9612C25.3736 21.9863 25.439 21.9991 25.5049 21.9989H27.003V25.0028H25.5049C25.4874 25.0019 25.4699 25.0019 25.4524 25.0028C25.3298 25.0153 25.2161 25.0726 25.1332 25.1638C25.0503 25.255 25.004 25.3737 25.0032 25.4969V26.9969H22.0051V25.4969C22.0036 25.365 21.95 25.2391 21.856 25.1465C21.7619 25.0539 21.6351 25.0023 21.5032 25.0028H19.5032C19.4862 25.0019 19.4692 25.0019 19.4522 25.0028C19.3292 25.0149 19.2151 25.0721 19.1318 25.1633C19.0485 25.2546 19.0019 25.3734 19.001 25.4969V26.9969H16.0049V25.4969C16.0034 25.365 15.9498 25.2391 15.8557 25.1465C15.7617 25.0539 15.6349 25.0023 15.503 25.0028H13.501C13.4842 25.002 13.4673 25.002 13.4504 25.0028C13.3274 25.0149 13.2133 25.0721 13.13 25.1633C13.0467 25.2546 13.0001 25.3734 12.9992 25.4969V26.9969H10.0032V25.4969C10.0016 25.365 9.94799 25.2391 9.85396 25.1465C9.75994 25.0539 9.63314 25.0023 9.5012 25.0028H7.50118C7.4862 25.0021 7.47119 25.0021 7.45621 25.0028C7.33324 25.0149 7.21909 25.0721 7.13578 25.1633C7.05247 25.2546 7.0059 25.3734 7.00505 25.4969V26.9969H5.00503V25.0028H6.50309C6.56908 25.0031 6.63447 24.9902 6.69549 24.9651C6.7565 24.9399 6.81194 24.903 6.8586 24.8563C6.90527 24.8097 6.94223 24.7541 6.96736 24.6931C6.9925 24.6321 7.0053 24.5667 7.00505 24.5007V22.5009C7.0053 22.4349 6.9925 22.3695 6.96736 22.3085C6.94223 22.2475 6.90527 22.1921 6.8586 22.1454C6.81194 22.0987 6.7565 22.0618 6.69549 22.0366C6.63447 22.0115 6.56908 21.9986 6.50309 21.9989H5.00503V19.0009H6.50309C6.56909 19.0011 6.63449 18.9883 6.69551 18.9631C6.75653 18.938 6.81198 18.901 6.85864 18.8544C6.9053 18.8077 6.94226 18.7522 6.96739 18.6912C6.99252 18.6301 7.00532 18.5648 7.00505 18.4988V16.4989C7.0053 16.4329 6.9925 16.3675 6.96736 16.3065C6.94223 16.2455 6.90527 16.19 6.8586 16.1433C6.81194 16.0966 6.7565 16.0597 6.69549 16.0345C6.63447 16.0094 6.56908 15.9966 6.50309 15.9968H5.00503V13.0007H6.50309C6.56908 13.001 6.63447 12.9882 6.69549 12.963C6.7565 12.9379 6.81194 12.9009 6.8586 12.8542C6.90527 12.8076 6.94223 12.7522 6.96736 12.6912C6.9925 12.6301 7.0053 12.5648 7.00505 12.4988V10.4968C7.00348 10.3649 6.94984 10.239 6.85582 10.1465C6.7618 10.0539 6.63501 10.0023 6.50309 10.0028H5.00503V6.9989H6.50309C6.56907 6.99915 6.63445 6.98631 6.69546 6.96118C6.75647 6.93605 6.81191 6.89907 6.85857 6.85242C6.90523 6.80576 6.94219 6.75034 6.96733 6.68933C6.99247 6.62832 7.00529 6.56293 7.00505 6.49695L7.00438 4.9989Z" fill="#F0F0F0"/>
<path d="M7.45558 6.9988C7.33126 7.011 7.21602 7.06922 7.13253 7.16213C7.04903 7.25503 7.00333 7.37584 7.00441 7.50075V9.50063C7.00389 9.63291 7.05581 9.76006 7.14879 9.85414C7.24177 9.94823 7.36824 10.0017 7.50051 10.0027H9.50045C9.56645 10.003 9.63184 9.99012 9.69286 9.96498C9.75388 9.93985 9.80933 9.90289 9.85599 9.85622C9.90266 9.80955 9.93963 9.75403 9.96476 9.69301C9.9899 9.63199 10.0027 9.56662 10.0024 9.50063V7.50075C10.0027 7.43475 9.9899 7.36939 9.96476 7.30837C9.93963 7.24735 9.90266 7.19183 9.85599 7.14516C9.80933 7.09849 9.75388 7.06153 9.69286 7.03639C9.63184 7.01126 9.56645 6.99854 9.50045 6.9988H7.50051C7.48553 6.99812 7.47056 6.99812 7.45558 6.9988Z" fill="#F0F0F0"/>
<path d="M13.4497 6.99893C13.3254 7.01114 13.2102 7.06936 13.1267 7.16226C13.0432 7.25517 12.9975 7.37598 12.9986 7.50089V9.50076C12.9983 9.56676 13.0111 9.63213 13.0362 9.69315C13.0614 9.75417 13.0983 9.80969 13.145 9.85635C13.1917 9.90302 13.2471 9.93998 13.3081 9.96512C13.3691 9.99026 13.4345 10.0031 13.5005 10.0028H15.5025C15.5684 10.0031 15.6338 9.99026 15.6949 9.96512C15.7559 9.93998 15.8113 9.90302 15.858 9.85635C15.9046 9.80969 15.9416 9.75417 15.9667 9.69315C15.9919 9.63213 16.0047 9.56676 16.0044 9.50076V7.50089C16.0047 7.43489 15.9919 7.36952 15.9667 7.3085C15.9416 7.24748 15.9046 7.19208 15.858 7.14542C15.8113 7.09875 15.7559 7.06179 15.6949 7.03665C15.6338 7.01151 15.5684 6.99868 15.5025 6.99893H13.5005C13.4836 6.99808 13.4666 6.99808 13.4497 6.99893Z" fill="#F0F0F0"/>
<path d="M19.4517 6.99893C19.3274 7.01114 19.2121 7.06936 19.1286 7.16226C19.0451 7.25517 18.9994 7.37598 19.0005 7.50089V9.50076C19.0002 9.56675 19.0131 9.63213 19.0382 9.69315C19.0633 9.75416 19.1003 9.80969 19.1469 9.85635C19.1936 9.90302 19.249 9.93998 19.31 9.96512C19.3711 9.99026 19.4364 10.0031 19.5024 10.0028H21.5024C21.5684 10.0031 21.6338 9.99026 21.6948 9.96512C21.7559 9.93998 21.8113 9.90302 21.858 9.85635C21.9046 9.80969 21.9416 9.75417 21.9667 9.69315C21.9919 9.63213 22.0047 9.56676 22.0044 9.50076V7.50089C22.0047 7.43489 21.9919 7.36952 21.9667 7.3085C21.9416 7.24748 21.9046 7.19208 21.858 7.14542C21.8113 7.09875 21.7559 7.06179 21.6948 7.03665C21.6338 7.01151 21.5684 6.99868 21.5024 6.99893H19.5024C19.4856 6.99808 19.4685 6.99808 19.4517 6.99893Z" fill="#F0F0F0"/>
<path d="M7.45558 13.0008C7.33126 13.013 7.21602 13.0713 7.13253 13.1642C7.04903 13.2571 7.00333 13.3779 7.00441 13.5028V15.5028C7.00597 15.6337 7.0588 15.7587 7.15155 15.8511C7.24431 15.9435 7.3696 15.9958 7.50051 15.9968H9.50045C9.63238 15.9974 9.75918 15.9457 9.85321 15.8532C9.94724 15.7606 10.0009 15.6348 10.0024 15.5028V13.5028C10.0027 13.4368 9.9899 13.3713 9.96476 13.3103C9.93963 13.2493 9.90266 13.1939 9.85599 13.1472C9.80933 13.1006 9.75388 13.0636 9.69286 13.0385C9.63184 13.0133 9.56645 13.0005 9.50045 13.0008H7.50051C7.48553 13.0001 7.47056 13.0001 7.45558 13.0008Z" fill="#F0F0F0"/>
<path d="M10.4517 10.0026C10.3291 10.0152 10.2154 10.0725 10.1325 10.1637C10.0496 10.2548 10.0033 10.3734 10.0024 10.4967V12.4986C10.0022 12.5646 10.015 12.63 10.0401 12.691C10.0653 12.752 10.1022 12.8074 10.1489 12.8541C10.1956 12.9007 10.251 12.9377 10.312 12.9628C10.373 12.988 10.4384 13.0008 10.5044 13.0006H12.5044C12.6363 12.999 12.7623 12.9454 12.8549 12.8514C12.9474 12.7574 12.9991 12.6306 12.9986 12.4986V10.4967C12.997 10.3661 12.9444 10.2413 12.8521 10.149C12.7598 10.0567 12.635 10.0042 12.5044 10.0026H10.5044C10.4869 10.0017 10.4692 10.0017 10.4517 10.0026Z" fill="#F0F0F0"/>
<path d="M13.4517 12.9989C13.451 12.9989 13.4504 12.9989 13.4497 12.9989C13.3254 13.0111 13.2102 13.0693 13.1267 13.1622C13.0432 13.2551 12.9975 13.3758 12.9986 13.5007V15.5007C13.0001 15.6326 13.0538 15.7586 13.1478 15.8512C13.2418 15.9437 13.3686 15.9954 13.5005 15.9949H15.5025C15.6344 15.9954 15.7612 15.9437 15.8552 15.8512C15.9492 15.7586 16.0028 15.6326 16.0044 15.5007V13.5007C16.0047 13.4347 15.9918 13.3693 15.9667 13.3083C15.9416 13.2473 15.9046 13.1919 15.8579 13.1452C15.8113 13.0986 15.7558 13.0616 15.6948 13.0365C15.6338 13.0114 15.5684 12.9986 15.5025 12.9989H13.5005C13.4843 12.9981 13.468 12.9981 13.4517 12.9989Z" fill="#F0F0F0"/>
<path d="M16.4536 10.0027C16.331 10.0152 16.2173 10.0725 16.1344 10.1637C16.0515 10.2549 16.0052 10.3735 16.0044 10.4967V12.4987C16.0039 12.6306 16.0555 12.7574 16.1481 12.8515C16.2406 12.9455 16.3666 12.9991 16.4985 13.0006H18.4985C18.5645 13.0009 18.6299 12.988 18.6909 12.9629C18.7519 12.9378 18.8074 12.9008 18.854 12.8541C18.9007 12.8075 18.9377 12.7521 18.9628 12.6911C18.988 12.63 19.0008 12.5647 19.0005 12.4987V10.4967C18.9989 10.3648 18.9453 10.2389 18.8513 10.1464C18.7572 10.0538 18.6304 10.0022 18.4985 10.0027H16.4985C16.4835 10.002 16.4686 10.002 16.4536 10.0027Z" fill="#F0F0F0"/>
<path d="M19.4517 12.9989C19.3274 13.0111 19.2121 13.0694 19.1287 13.1623C19.0452 13.2551 18.9994 13.3759 19.0005 13.5008V15.5008C19.0021 15.6327 19.0557 15.7587 19.1497 15.8512C19.2437 15.9438 19.3705 15.9954 19.5024 15.9949H21.5024C21.6344 15.9954 21.7612 15.9438 21.8552 15.8512C21.9492 15.7587 22.0028 15.6327 22.0044 15.5008V13.5008C22.0046 13.4348 21.9918 13.3694 21.9667 13.3084C21.9415 13.2474 21.9046 13.192 21.8579 13.1453C21.8113 13.0986 21.7558 13.0617 21.6948 13.0365C21.6338 13.0114 21.5684 12.9987 21.5024 12.9989H19.5024C19.4856 12.9981 19.4685 12.9981 19.4517 12.9989Z" fill="#F0F0F0"/>
<path d="M22.4556 10.0027C22.3326 10.0148 22.2185 10.0719 22.1352 10.1631C22.0519 10.2543 22.0053 10.3732 22.0044 10.4967V12.4987C22.0039 12.631 22.0558 12.758 22.1488 12.8521C22.2418 12.9462 22.3682 12.9996 22.5005 13.0006H24.5004C24.5664 13.0009 24.6318 12.988 24.6928 12.9629C24.7539 12.9378 24.8093 12.9008 24.856 12.8541C24.9026 12.8075 24.9396 12.7521 24.9647 12.6911C24.9899 12.63 25.0027 12.5647 25.0024 12.4987V10.4967C25.0009 10.3648 24.9472 10.2389 24.8532 10.1464C24.7592 10.0538 24.6324 10.0022 24.5004 10.0027H22.5005C22.4855 10.002 22.4705 10.002 22.4556 10.0027Z" fill="#F0F0F0"/>
<path d="M7.45556 19.0008C7.33228 19.0129 7.21788 19.0702 7.13453 19.1619C7.05118 19.2535 7.00481 19.3728 7.0044 19.4967V21.4968C7.0039 21.6291 7.05583 21.7562 7.14881 21.8502C7.24178 21.9443 7.36824 21.9978 7.5005 21.9988H9.50044C9.56642 21.9991 9.63181 21.9862 9.69282 21.9611C9.75384 21.9359 9.80928 21.899 9.85594 21.8523C9.90261 21.8057 9.93957 21.7502 9.96472 21.6892C9.98986 21.6282 10.0027 21.5628 10.0024 21.4968V19.4967C10.0014 19.3645 9.94794 19.238 9.85386 19.145C9.75977 19.0521 9.6327 19.0002 9.50044 19.0008H7.5005C7.48551 19.0001 7.47054 19.0001 7.45556 19.0008Z" fill="#F0F0F0"/>
<path d="M10.5044 15.9968C10.4384 15.9966 10.373 16.0094 10.312 16.0345C10.251 16.0597 10.1956 16.0966 10.1489 16.1433C10.1022 16.19 10.0653 16.2455 10.0401 16.3065C10.015 16.3675 10.0022 16.4329 10.0024 16.4989V18.4988C10.0022 18.5648 10.015 18.6301 10.0401 18.6912C10.0652 18.7522 10.1022 18.8077 10.1489 18.8544C10.1955 18.9011 10.251 18.938 10.312 18.9631C10.373 18.9883 10.4384 19.0011 10.5044 19.0009H12.5044C12.6364 18.9993 12.7624 18.9456 12.8549 18.8516C12.9475 18.7575 12.9991 18.6307 12.9986 18.4988V16.4989C12.9991 16.367 12.9474 16.2402 12.8549 16.1461C12.7623 16.0521 12.6363 15.9984 12.5044 15.9968H10.5044Z" fill="#F0F0F0"/>
<path d="M13.4497 19.0009C13.3264 19.013 13.212 19.0704 13.1287 19.162C13.0453 19.2537 12.9989 19.373 12.9985 19.4969V21.497C12.9983 21.563 13.0111 21.6284 13.0363 21.6894C13.0614 21.7504 13.0984 21.8058 13.145 21.8524C13.1917 21.8991 13.2471 21.9361 13.3081 21.9612C13.3691 21.9863 13.4345 21.9992 13.5005 21.9989H15.5024C15.5684 21.9992 15.6338 21.9863 15.6948 21.9612C15.7558 21.9361 15.8113 21.8991 15.8579 21.8524C15.9046 21.8058 15.9415 21.7504 15.9667 21.6894C15.9918 21.6284 16.0046 21.563 16.0044 21.497V19.4969C16.0033 19.3646 15.9499 19.2383 15.8558 19.1453C15.7618 19.0523 15.6347 19.0004 15.5024 19.0009H13.5005C13.4836 19 13.4666 19 13.4497 19.0009Z" fill="#F0F0F0"/>
<path d="M16.4985 15.9968C16.3666 15.9984 16.2406 16.0521 16.1481 16.1461C16.0555 16.2402 16.0039 16.367 16.0044 16.4989V18.4988C16.0038 18.6307 16.0555 18.7575 16.148 18.8516C16.2406 18.9456 16.3666 18.9993 16.4985 19.0009H18.4985C18.5645 19.0011 18.6299 18.9883 18.6909 18.9631C18.752 18.938 18.8074 18.9011 18.8541 18.8544C18.9008 18.8077 18.9377 18.7522 18.9628 18.6912C18.988 18.6301 19.0008 18.5648 19.0005 18.4988V16.4989C19.0008 16.4329 18.988 16.3674 18.9628 16.3064C18.9377 16.2454 18.9007 16.19 18.8541 16.1433C18.8074 16.0966 18.7519 16.0597 18.6909 16.0345C18.6299 16.0094 18.5645 15.9966 18.4985 15.9968H16.4985Z" fill="#F0F0F0"/>
<path d="M19.4517 19.0009C19.3284 19.013 19.214 19.0704 19.1306 19.162C19.0473 19.2537 19.0009 19.373 19.0005 19.4969V21.497C19.0002 21.563 19.0131 21.6284 19.0382 21.6894C19.0633 21.7504 19.1003 21.8058 19.147 21.8524C19.1936 21.8991 19.249 21.9361 19.31 21.9612C19.3711 21.9863 19.4364 21.9992 19.5024 21.9989H21.5024C21.5684 21.9992 21.6338 21.9863 21.6948 21.9612C21.7558 21.9361 21.8112 21.8991 21.8579 21.8524C21.9046 21.8058 21.9415 21.7504 21.9667 21.6894C21.9918 21.6284 22.0046 21.563 22.0044 21.497V19.4969C22.0033 19.3646 21.9499 19.2383 21.8558 19.1453C21.7617 19.0523 21.6347 19.0004 21.5024 19.0009H19.5024C19.4855 19 19.4685 19 19.4517 19.0009Z" fill="#F0F0F0"/>
<path d="M22.5005 15.9968C22.3682 15.9979 22.2418 16.0513 22.1488 16.1454C22.0558 16.2395 22.0039 16.3666 22.0044 16.4989V18.4988C22.0039 18.6311 22.0558 18.7582 22.1487 18.8523C22.2417 18.9464 22.3682 18.9998 22.5005 19.0009H24.5004C24.5664 19.0011 24.6318 18.9883 24.6929 18.9631C24.7539 18.938 24.8093 18.9011 24.856 18.8544C24.9027 18.8077 24.9396 18.7522 24.9648 18.6912C24.9899 18.6301 25.0027 18.5648 25.0024 18.4988V16.4989C25.0027 16.4329 24.9899 16.3674 24.9647 16.3064C24.9396 16.2454 24.9026 16.19 24.856 16.1433C24.8093 16.0966 24.7539 16.0597 24.6928 16.0345C24.6318 16.0094 24.5664 15.9966 24.5004 15.9968H22.5005Z" fill="#F0F0F0"/>
<path d="M10.4517 21.9987C10.3277 22.0114 10.213 22.0698 10.1299 22.1627C10.0468 22.2555 10.0013 22.3761 10.0025 22.5007V24.5006C10.0022 24.5666 10.015 24.6319 10.0401 24.693C10.0653 24.754 10.1022 24.8095 10.1489 24.8562C10.1956 24.9028 10.251 24.9398 10.312 24.9649C10.373 24.9901 10.4384 25.0029 10.5044 25.0026H12.5044C12.6364 25.0011 12.7623 24.9474 12.8549 24.8534C12.9474 24.7593 12.9991 24.6325 12.9986 24.5006V22.5007C12.9991 22.3688 12.9474 22.2419 12.8549 22.1479C12.7623 22.0539 12.6364 22.0003 12.5044 21.9987H10.5044C10.4869 21.9978 10.4692 21.9978 10.4517 21.9987Z" fill="#F0F0F0"/>
<path d="M16.4536 21.9988C16.3297 22.0115 16.2149 22.0699 16.1318 22.1627C16.0487 22.2556 16.0033 22.3762 16.0044 22.5008V24.5006C16.0039 24.6326 16.0555 24.7594 16.1481 24.8534C16.2406 24.9474 16.3666 25.0011 16.4986 25.0027H18.4985C18.5645 25.003 18.6299 24.9901 18.6909 24.965C18.752 24.9398 18.8074 24.9029 18.8541 24.8562C18.9007 24.8096 18.9377 24.754 18.9628 24.693C18.988 24.632 19.0008 24.5666 19.0005 24.5006V22.5008C19.0008 22.4348 18.988 22.3694 18.9628 22.3084C18.9377 22.2473 18.9007 22.1918 18.8541 22.1452C18.8074 22.0985 18.752 22.0615 18.6909 22.0364C18.6299 22.0113 18.5645 21.9985 18.4985 21.9988H16.4986C16.4836 21.9981 16.4686 21.9981 16.4536 21.9988Z" fill="#F0F0F0"/>
<path d="M22.4556 21.9988C22.3313 22.011 22.216 22.0692 22.1325 22.1621C22.049 22.255 22.0033 22.3758 22.0044 22.5008V24.5006C22.0039 24.6329 22.0558 24.7601 22.1488 24.8541C22.2418 24.9482 22.3682 25.0017 22.5005 25.0027H24.5005C24.5664 25.003 24.6318 24.9901 24.6929 24.965C24.7539 24.9398 24.8093 24.9029 24.856 24.8562C24.9027 24.8096 24.9396 24.754 24.9648 24.693C24.9899 24.632 25.0027 24.5666 25.0024 24.5006V22.5008C25.0027 22.4348 24.9899 22.3694 24.9648 22.3084C24.9396 22.2473 24.9027 22.1918 24.856 22.1452C24.8093 22.0985 24.7539 22.0615 24.6929 22.0364C24.6318 22.0113 24.5664 21.9985 24.5005 21.9988H22.5005C22.4855 21.9981 22.4706 21.9981 22.4556 21.9988Z" fill="#F0F0F0"/>
<path d="M2.45027 2.00079C2.32613 2.01321 2.2111 2.07161 2.1278 2.16449C2.04449 2.25737 1.99891 2.37804 2.00002 2.50281V29.4984C1.99976 29.5643 2.01257 29.6297 2.0377 29.6907C2.06284 29.7518 2.0998 29.8072 2.14646 29.8538C2.19312 29.9005 2.24856 29.9374 2.30958 29.9626C2.3706 29.9877 2.43599 30.0006 2.50198 30.0003H29.5049C29.6369 29.9989 29.763 29.9453 29.8557 29.8513C29.9483 29.7572 30 29.6304 29.9995 29.4984V2.50281C30 2.37079 29.9483 2.24388 29.8557 2.14984C29.763 2.0558 29.6369 2.00223 29.5049 2.00079H2.50198C2.48473 1.9999 2.46752 1.9999 2.45027 2.00079ZM3.0039 2.99737H29.0029V28.9964H3.0039V2.99737Z" fill="#F0F0F0"/>
</svg>
