<svg width="60" height="60" viewBox="0 0 60 60" fill="none" xmlns="http://www.w3.org/2000/svg">
<path d="M25.1994 49.4337C24.0745 47.7841 21.3687 43.3305 21.3687 38.6549V38.3257" stroke="#00247D" stroke-width="2" stroke-miterlimit="10" stroke-linecap="round" stroke-linejoin="round"/>
<path d="M9.69351 38.3257V38.6549C9.69351 43.5077 6.77882 48.1213 5.74194 49.609" stroke="#00247D" stroke-width="2" stroke-miterlimit="10" stroke-linecap="round" stroke-linejoin="round"/>
<path d="M15.531 31.0729C20.0045 31.0729 23.6309 27.4237 23.6309 22.9222C23.6309 18.4208 20.0045 14.7716 15.531 14.7716C11.0576 14.7716 7.43115 18.4208 7.43115 22.9222C7.43115 27.4237 11.0576 31.0729 15.531 31.0729Z" stroke="#00247D" stroke-width="2" stroke-miterlimit="10" stroke-linecap="round" stroke-linejoin="round"/>
<path d="M26.699 49.467C27.2018 49.3026 27.7387 49.2137 28.296 49.2137H53.2572C56.1096 49.2137 58.422 51.5406 58.422 54.4109V58.1404H28.8408" stroke="#1C77C3" stroke-width="2" stroke-miterlimit="10" stroke-linecap="round" stroke-linejoin="round"/>
<path d="M32.6544 23.0001V23.8303C32.6544 32.0431 30.8629 40.1558 27.4063 47.5957L26.6545 49.2138" stroke="#1C77C3" stroke-width="2" stroke-miterlimit="10" stroke-linecap="round" stroke-linejoin="round"/>
<path d="M54.8986 49.2138L54.1468 47.5957C50.6902 40.1558 48.8987 32.043 48.8987 23.8303V23.0001" stroke="#1C77C3" stroke-width="2" stroke-miterlimit="10" stroke-linecap="round" stroke-linejoin="round"/>
<path d="M48.9586 15.0858C50.8695 15.0858 52.4186 16.6446 52.4186 18.5675C52.4186 20.4903 50.8695 22.0491 48.9586 22.0491H32.594C30.6831 22.0491 29.134 20.4903 29.134 18.5675C29.134 16.6446 30.6831 15.0858 32.594 15.0858" stroke="#1C77C3" stroke-width="2" stroke-miterlimit="10" stroke-linecap="round" stroke-linejoin="round"/>
<path d="M49.2195 1V5.44516H44.0909V1H37.4623V5.44516H32.3337V1H25.7051V9.88867C25.7051 12.7589 28.0174 15.0858 30.8699 15.0858H50.6834C53.5358 15.0858 55.8482 12.7589 55.8482 9.88867V1H49.2195Z" stroke="#1C77C3" stroke-width="2" stroke-miterlimit="10" stroke-linecap="round" stroke-linejoin="round"/>
<path d="M21.9862 37.3748H9.07566C7.34082 37.3748 5.93457 35.9684 5.93457 34.2337V34.2141C5.93457 32.4792 7.34094 31.073 9.07566 31.073H21.9862C23.7211 31.073 25.1273 32.4794 25.1273 34.2141V34.2337C25.1273 35.9685 23.7211 37.3748 21.9862 37.3748Z" stroke="#1C77C3" stroke-width="2" stroke-miterlimit="10" stroke-linecap="round" stroke-linejoin="round"/>
<path d="M30.062 58.1403H1V54.7692C1 52.194 3.0877 50.1063 5.66289 50.1063H25.3991C27.9743 50.1063 30.062 52.194 30.062 54.7692V58.1403Z" stroke="#1C77C3" stroke-width="2" stroke-miterlimit="10" stroke-linecap="round" stroke-linejoin="round"/>
</svg>
