<svg width="32" height="32" viewBox="0 0 32 32" fill="none" xmlns="http://www.w3.org/2000/svg">
<path d="M16.0002 2.66663C13.1712 2.66663 10.4581 3.79043 8.45769 5.79082C6.4573 7.79121 5.3335 10.5043 5.3335 13.3333C5.3335 20.5333 14.7335 28.6666 15.1335 29.0133C15.375 29.2199 15.6824 29.3334 16.0002 29.3334C16.318 29.3334 16.6253 29.2199 16.8668 29.0133C17.3335 28.6666 26.6668 20.5333 26.6668 13.3333C26.6668 10.5043 25.543 7.79121 23.5426 5.79082C21.5422 3.79043 18.8291 2.66663 16.0002 2.66663ZM16.0002 26.2C13.1602 23.5333 8.00016 17.7866 8.00016 13.3333C8.00016 11.2116 8.84302 9.17673 10.3433 7.67644C11.8436 6.17615 13.8784 5.33329 16.0002 5.33329C18.1219 5.33329 20.1567 6.17615 21.657 7.67644C23.1573 9.17673 24.0002 11.2116 24.0002 13.3333C24.0002 17.7866 18.8402 23.5466 16.0002 26.2ZM16.0002 7.99996C14.9453 7.99996 13.9142 8.31275 13.0371 8.89879C12.1601 9.48482 11.4765 10.3178 11.0728 11.2923C10.6691 12.2669 10.5635 13.3392 10.7693 14.3738C10.9751 15.4083 11.483 16.3586 12.2289 17.1045C12.9748 17.8504 13.9251 18.3584 14.9597 18.5641C15.9942 18.7699 17.0666 18.6643 18.0411 18.2607C19.0157 17.857 19.8486 17.1734 20.4347 16.2963C21.0207 15.4193 21.3335 14.3881 21.3335 13.3333C21.3335 11.9188 20.7716 10.5623 19.7714 9.56206C18.7712 8.56186 17.4146 7.99996 16.0002 7.99996ZM16.0002 16C15.4727 16 14.9572 15.8436 14.5186 15.5505C14.0801 15.2575 13.7383 14.8411 13.5365 14.3538C13.3347 13.8665 13.2818 13.3303 13.3847 12.8131C13.4876 12.2958 13.7416 11.8206 14.1145 11.4477C14.4875 11.0747 14.9626 10.8208 15.4799 10.7179C15.9972 10.615 16.5334 10.6678 17.0207 10.8696C17.5079 11.0714 17.9244 11.4132 18.2174 11.8518C18.5104 12.2903 18.6668 12.8059 18.6668 13.3333C18.6668 14.0405 18.3859 14.7188 17.8858 15.2189C17.3857 15.719 16.7074 16 16.0002 16Z" fill="#F0F0F0"/>
</svg>
