<svg width="28" height="28" viewBox="0 0 28 28" fill="none" xmlns="http://www.w3.org/2000/svg">
<path d="M22.7446 18.3476C21.9462 17.5272 19.6766 15.9905 18.1891 15.9905C17.8446 15.9905 17.5438 16.0671 17.2977 16.2257C16.5704 16.6905 15.9907 17.0515 15.7118 17.0515C15.5587 17.0515 15.3946 16.9147 15.0337 16.603L14.9735 16.5483C13.9727 15.6788 13.7594 15.4546 13.3712 15.0499L13.2727 14.946C13.2016 14.8749 13.1415 14.8093 13.0813 14.7491C12.7423 14.3991 12.4962 14.1476 11.6266 13.1632L11.5884 13.1194C11.1727 12.6491 10.8993 12.3429 10.8829 12.1187C10.8665 11.8999 11.0579 11.5444 11.5446 10.8827C12.1352 10.0843 12.1571 9.0999 11.6157 7.95693C11.1837 7.05459 10.4782 6.19053 9.85476 5.43037L9.80007 5.36475C9.26413 4.7085 8.6407 4.38037 7.94617 4.38037C7.17507 4.38037 6.53523 4.796 6.19617 5.01475C6.16882 5.03115 6.14148 5.05303 6.11413 5.06943C5.35398 5.55068 4.80163 6.2124 4.59382 6.88506C4.2821 7.89678 4.07429 9.20928 5.56726 11.9382C6.85788 14.3007 8.0282 15.8866 9.88757 17.7952C11.6376 19.589 12.4141 20.1687 14.1532 21.4265C16.0891 22.8265 17.9485 23.6304 19.2501 23.6304C20.4587 23.6304 21.4102 23.6304 22.7665 21.9952C24.1884 20.278 23.5977 19.228 22.7446 18.3476ZM22.1157 21.4046C21.0219 22.728 20.393 22.728 19.2555 22.728C18.1454 22.728 16.4227 21.9624 14.6509 20.6882C12.9555 19.4632 12.2009 18.8999 10.5001 17.1554C8.70085 15.3124 7.56882 13.7757 6.32195 11.4952C5.00398 9.0835 5.15163 8.02803 5.4196 7.1585C5.56179 6.69365 5.98835 6.196 6.56804 5.83506C6.59538 5.81865 6.62273 5.79678 6.65554 5.78037C6.94538 5.59443 7.42663 5.28271 7.95163 5.28271C8.38913 5.28271 8.77742 5.50146 9.14929 5.95537L9.20398 6.021C10.5985 7.72725 11.6868 9.23662 10.8665 10.3522C10.2868 11.1343 9.98054 11.6647 10.0298 12.2116C10.0735 12.7421 10.429 13.1413 10.9649 13.7429L11.0032 13.7866C11.8837 14.7819 12.1352 15.0444 12.4852 15.3999C12.5454 15.4601 12.6055 15.5257 12.6766 15.5968L12.7751 15.7007C13.1798 16.1218 13.404 16.3515 14.4321 17.2538L14.4923 17.3085C14.9298 17.6913 15.2524 17.9702 15.7227 17.9702C16.2094 17.9702 16.7454 17.664 17.7626 17.0132C17.8665 16.9476 18.0141 16.9093 18.2001 16.9093C19.3868 16.9093 21.4321 18.2655 22.1485 19.0038C22.8048 19.671 23.1329 20.1741 22.1157 21.4046Z" fill="#1C77C3"/>
</svg>
