<svg width="26" height="9" viewBox="0 0 26 9" fill="none" xmlns="http://www.w3.org/2000/svg">
<path d="M0.657215 8.49252C0.524115 8.49271 0.394103 8.45243 0.284428 8.37702C0.174754 8.30161 0.0906028 8.19463 0.043141 8.07028C-0.00432071 7.94593 -0.0128493 7.81009 0.0186869 7.68078C0.0502232 7.55147 0.120333 7.4348 0.219715 7.34627L8.26971 0.166892C8.39967 0.0508601 8.5704 -0.00879488 8.74434 0.00105078C8.91828 0.0108964 9.08118 0.0894358 9.19722 0.219392C9.31325 0.349348 9.3729 0.520076 9.36306 0.694016C9.35321 0.867956 9.27467 1.03086 9.14471 1.14689L1.09471 8.32627C0.975167 8.43504 0.818829 8.49445 0.657215 8.49252ZM25.0085 8.49252C24.8468 8.49445 24.6905 8.43504 24.571 8.32627L16.521 1.14689C16.391 1.03086 16.3125 0.867956 16.3026 0.694016C16.2928 0.520076 16.3524 0.349348 16.4685 0.219392C16.5845 0.0894358 16.7474 0.0108964 16.9213 0.00105078C17.0953 -0.00879488 17.266 0.0508601 17.396 0.166892L25.4416 7.34627C25.541 7.4348 25.6111 7.55147 25.6426 7.68078C25.6742 7.81009 25.6656 7.94593 25.6182 8.07028C25.5707 8.19463 25.4865 8.30161 25.3769 8.37702C25.2672 8.45243 25.1372 8.49271 25.0041 8.49252H25.0085Z" fill="#F0F0F0"/>
</svg>
