<svg width="20" height="20" viewBox="0 0 20 20" fill="none" xmlns="http://www.w3.org/2000/svg">
<path d="M18.3735 13.9672C17.5751 13.1469 15.3055 11.6102 13.818 11.6102C13.4735 11.6102 13.1727 11.6867 12.9266 11.8453C12.1993 12.3102 11.6196 12.6711 11.3407 12.6711C11.1876 12.6711 11.0235 12.5344 10.6626 12.2227L10.6024 12.168C9.60163 11.2984 9.38835 11.0742 9.00007 10.6695L8.90164 10.5656C8.83054 10.4945 8.77038 10.4289 8.71023 10.3688C8.37117 10.0188 8.12507 9.76719 7.25554 8.78281L7.21726 8.73906C6.80163 8.26875 6.5282 7.9625 6.51179 7.73828C6.49538 7.51953 6.68679 7.16406 7.17351 6.50234C7.76414 5.70391 7.78601 4.71953 7.2446 3.57656C6.81257 2.67422 6.1071 1.81016 5.48367 1.05L5.42898 0.984375C4.89304 0.328125 4.2696 0 3.57507 0C2.80398 0 2.16413 0.415625 1.82507 0.634375C1.79773 0.650781 1.77038 0.672656 1.74304 0.689062C0.982885 1.17031 0.430541 1.83203 0.222728 2.50469C-0.0889904 3.51641 -0.296803 4.82891 1.19617 7.55781C2.48679 9.92031 3.6571 11.5062 5.51648 13.4148C7.26648 15.2086 8.04304 15.7883 9.7821 17.0461C11.718 18.4461 13.5774 19.25 14.879 19.25C16.0876 19.25 17.0391 19.25 18.3954 17.6148C19.8173 15.8977 19.2266 14.8477 18.3735 13.9672ZM17.7446 17.0242C16.6509 18.3477 16.0219 18.3477 14.8844 18.3477C13.7743 18.3477 12.0516 17.582 10.2798 16.3078C8.58445 15.0828 7.82976 14.5195 6.12898 12.775C4.32976 10.932 3.19773 9.39531 1.95085 7.11484C0.632884 4.70313 0.780541 3.64766 1.04851 2.77812C1.1907 2.31328 1.61726 1.81562 2.19695 1.45469C2.22429 1.43828 2.25163 1.41641 2.28445 1.4C2.57429 1.21406 3.05554 0.902344 3.58054 0.902344C4.01804 0.902344 4.40632 1.12109 4.7782 1.575L4.83288 1.64062C6.22742 3.34687 7.3157 4.85625 6.49538 5.97188C5.9157 6.75391 5.60945 7.28438 5.65867 7.83125C5.70242 8.36172 6.05788 8.76094 6.59382 9.3625L6.6321 9.40625C7.51257 10.4016 7.76414 10.6641 8.11413 11.0195C8.17429 11.0797 8.23445 11.1453 8.30554 11.2164L8.40398 11.3203C8.80867 11.7414 9.03288 11.9711 10.061 12.8734L10.1212 12.9281C10.5587 13.3109 10.8813 13.5898 11.3516 13.5898C11.8384 13.5898 12.3743 13.2836 13.3915 12.6328C13.4954 12.5672 13.643 12.5289 13.829 12.5289C15.0157 12.5289 17.061 13.8852 17.7774 14.6234C18.4337 15.2906 18.7618 15.7937 17.7446 17.0242Z" fill="#F0F0F0"/>
</svg>
