<svg width="28" height="28" viewBox="0 0 28 28" fill="none" xmlns="http://www.w3.org/2000/svg">
<path d="M19.3666 16.3334C19.1333 16.2167 17.6166 15.5167 17.3833 15.4C17.1499 15.2834 16.9166 15.2834 16.6833 15.5167C16.4499 15.75 15.9833 16.45 15.7499 16.6834C15.6333 16.9167 15.3999 16.9167 15.1666 16.8C14.3499 16.45 13.5333 15.9834 12.8333 15.4C12.2499 14.8167 11.6666 14.1167 11.1999 13.4167C11.0833 13.1834 11.1999 12.95 11.3166 12.8334C11.4333 12.7167 11.5499 12.4834 11.7833 12.3667C11.8999 12.25 12.0166 12.0167 12.0166 11.9C12.1333 11.7834 12.1333 11.55 12.0166 11.4334C11.8999 11.3167 11.3166 9.9167 11.0833 9.33337C10.9666 8.5167 10.7333 8.5167 10.4999 8.5167H9.91658C9.68325 8.5167 9.33325 8.75003 9.21659 8.8667C8.51659 9.5667 8.16658 10.3834 8.16658 11.3167C8.28325 12.3667 8.63325 13.4167 9.33325 14.35C10.6166 16.2167 12.2499 17.7334 14.2333 18.6667C14.8166 18.9 15.2833 19.1334 15.8666 19.25C16.4499 19.4834 17.0333 19.4834 17.7333 19.3667C18.5499 19.25 19.2499 18.6667 19.7166 17.9667C19.9499 17.5 19.9499 17.0334 19.8333 16.5667L19.3666 16.3334ZM22.2833 5.7167C17.7333 1.1667 10.3833 1.1667 5.83325 5.7167C2.09992 9.45003 1.39992 15.1667 3.96659 19.7167L2.33325 25.6667L8.51659 24.0334C10.2666 24.9667 12.1333 25.4334 13.9999 25.4334C20.4166 25.4334 25.5499 20.3 25.5499 13.8834C25.6666 10.85 24.3833 7.93337 22.2833 5.7167ZM19.1333 22.05C17.6166 22.9834 15.8666 23.5667 13.9999 23.5667C12.2499 23.5667 10.6166 23.1 9.09992 22.2834L8.74992 22.05L5.13325 22.9834L6.06658 19.4834L5.83325 19.1334C3.03325 14.4667 4.43325 8.63337 8.98325 5.7167C13.5333 2.80003 19.3666 4.3167 22.1666 8.75003C24.9666 13.3 23.6833 19.25 19.1333 22.05Z" fill="#1C77C3"/>
</svg>
