<svg width="28" height="28" viewBox="0 0 28 28" fill="none" xmlns="http://www.w3.org/2000/svg">
<path d="M19.3668 16.3329C19.1335 16.2162 17.6168 15.5162 17.3835 15.3995C17.1502 15.2829 16.9168 15.2829 16.6835 15.5162C16.4502 15.7495 15.9835 16.4495 15.7502 16.6829C15.6335 16.9162 15.4002 16.9162 15.1668 16.7995C14.3502 16.4495 13.5335 15.9829 12.8335 15.3995C12.2502 14.8162 11.6668 14.1162 11.2002 13.4162C11.0835 13.1829 11.2002 12.9495 11.3168 12.8329C11.4335 12.7162 11.5502 12.4829 11.7835 12.3662C11.9002 12.2495 12.0168 12.0162 12.0168 11.8995C12.1335 11.7829 12.1335 11.5495 12.0168 11.4329C11.9002 11.3162 11.3168 9.91621 11.0835 9.33288C10.9668 8.51621 10.7335 8.51621 10.5002 8.51621H9.91683C9.6835 8.51621 9.3335 8.74954 9.21683 8.86621C8.51683 9.56621 8.16683 10.3829 8.16683 11.3162C8.2835 12.3662 8.6335 13.4162 9.3335 14.3495C10.6168 16.2162 12.2502 17.7329 14.2335 18.6662C14.8168 18.8995 15.2835 19.1329 15.8668 19.2495C16.4502 19.4829 17.0335 19.4829 17.7335 19.3662C18.5502 19.2495 19.2502 18.6662 19.7168 17.9662C19.9502 17.4995 19.9502 17.0329 19.8335 16.5662L19.3668 16.3329ZM22.2835 5.71621C17.7335 1.16621 10.3835 1.16621 5.8335 5.71621C2.10016 9.44954 1.40016 15.1662 3.96683 19.7162L2.3335 25.6662L8.51683 24.0329C10.2668 24.9662 12.1335 25.4329 14.0002 25.4329C20.4168 25.4329 25.5502 20.2995 25.5502 13.8829C25.6668 10.8495 24.3835 7.93288 22.2835 5.71621ZM19.1335 22.0495C17.6168 22.9829 15.8668 23.5662 14.0002 23.5662C12.2502 23.5662 10.6168 23.0995 9.10016 22.2829L8.75016 22.0495L5.1335 22.9829L6.06683 19.4829L5.8335 19.1329C3.0335 14.4662 4.4335 8.63288 8.9835 5.71621C13.5335 2.79954 19.3668 4.31621 22.1668 8.74954C24.9668 13.2995 23.6835 19.2495 19.1335 22.0495Z" fill="#F0F0F0"/>
</svg>
