<svg width="28" height="28" viewBox="0 0 28 28" fill="none" xmlns="http://www.w3.org/2000/svg">
<path fill-rule="evenodd" clip-rule="evenodd" d="M24.1583 5.49163C24.6139 5.03601 24.6139 4.29732 24.1583 3.84171C23.7027 3.3861 22.964 3.3861 22.5084 3.84171L15.5727 10.7774L10.5857 3.97676C10.3659 3.67706 10.0165 3.5 9.64483 3.5H4.66667C4.22703 3.5 3.82472 3.74715 3.626 4.13931C3.42727 4.53147 3.46588 5.00205 3.72585 5.35658L11.0313 15.3188L3.84171 22.5084C3.3861 22.964 3.3861 23.7027 3.84171 24.1583C4.29732 24.6139 5.03601 24.6139 5.49163 24.1583L12.4273 17.2226L17.4144 24.0233C17.6342 24.3229 17.9836 24.5 18.3552 24.5H23.3333C23.7729 24.5 24.1753 24.2529 24.374 23.8607C24.5727 23.4685 24.5342 22.9979 24.2741 22.6434L16.9687 12.6812L24.1583 5.49163ZM14.432 13.1676C14.4681 13.2277 14.5099 13.2851 14.5578 13.3392L21.031 22.1667H18.9464L6.96894 5.83333H9.05364L14.432 13.1676Z" fill="#F0F0F0"/>
</svg>
