<svg width="28" height="20" viewBox="0 0 28 20" fill="none" xmlns="http://www.w3.org/2000/svg">
<path d="M27.9936 7.04863C28.0564 5.198 27.6583 3.36122 26.8361 1.70884C26.2782 1.03083 25.504 0.573275 24.6484 0.415913C21.1093 0.0894815 17.5555 -0.0443119 14.0024 0.0151056C10.4622 -0.0470087 6.92121 0.0824673 3.39453 0.402984C2.69729 0.53191 2.05204 0.864354 1.53752 1.35975C0.392791 2.43288 0.265598 4.26884 0.138406 5.82035C-0.0461352 8.60992 -0.0461352 11.4089 0.138406 14.1985C0.175203 15.0718 0.303112 15.9386 0.519983 16.7844C0.673345 17.4374 0.983628 18.0415 1.42305 18.5427C1.94106 19.0644 2.60134 19.4157 3.31822 19.5512C6.06038 19.8953 8.82338 20.0379 11.5857 19.9779C16.0375 20.0425 19.9423 19.9779 24.5594 19.6159C25.2938 19.4887 25.9727 19.1369 26.5054 18.6074C26.8615 18.2453 27.1275 17.802 27.2813 17.3145C27.7362 15.8956 27.9596 14.4107 27.9427 12.9185C27.9936 12.1945 27.9936 7.82438 27.9936 7.04863ZM11.1278 13.6943V5.69105L18.6576 9.71206C16.5462 10.9016 13.7607 12.2462 11.1278 13.6943Z" fill="#F0F0F0"/>
</svg>
